<svg width="25" height="25" viewBox="0 0 25 25" fill="none" xmlns="http://www.w3.org/2000/svg">
<path d="M10.625 9.99966H8.92188C9.45296 9.23527 10.2144 8.66056 11.0951 8.35938C11.9758 8.0582 12.9297 8.0463 13.8177 8.32541C14.7056 8.60453 15.4811 9.16007 16.0311 9.91098C16.5811 10.6619 16.8768 11.5689 16.875 12.4997H18.125C18.1255 11.3362 17.7653 10.2012 17.0939 9.25106C16.4225 8.30089 15.473 7.58227 14.3762 7.1942C13.2794 6.80614 12.0892 6.76772 10.9697 7.08424C9.85014 7.40076 8.85627 8.05664 8.125 8.96154V7.49966H6.875V11.2497H10.625V9.99966Z" fill="#9A9AB0"/>
<path d="M14.375 15H16.0781C15.547 15.7644 14.7856 16.3391 13.9049 16.6403C13.0242 16.9415 12.0703 16.9534 11.1823 16.6742C10.2944 16.3951 9.51887 15.8396 8.96888 15.0887C8.41889 14.3378 8.12322 13.4308 8.125 12.5H6.875C6.87446 13.6634 7.2347 14.7984 7.90608 15.7486C8.57747 16.6988 9.52697 17.4174 10.6238 17.8055C11.7206 18.1935 12.9108 18.2319 14.0303 17.9154C15.1499 17.5989 16.1437 16.943 16.875 16.0381V17.5H18.125V13.75H14.375V15Z" fill="#9A9AB0"/>
</svg>
