<svg width="46" height="48" viewBox="0 0 46 48" fill="none" xmlns="http://www.w3.org/2000/svg">
<path d="M31.125 29H29.9568L29.2083 25.877V22C29.2064 20.3182 28.6243 18.6932 27.5685 17.4225C26.5126 16.1518 25.0536 15.3203 23.4583 15.08V14H21.5417V15.08C19.9464 15.3203 18.4874 16.1518 17.4315 17.4225C16.3757 18.6932 15.7936 20.3182 15.7917 22V25.877L15.0432 29H13.875V31H18.8028C19.0119 31.8576 19.489 32.618 20.1585 33.1611C20.8281 33.7042 21.6519 33.9991 22.5 33.9991C23.3481 33.9991 24.1719 33.7042 24.8415 33.1611C25.511 32.618 25.9881 31.8576 26.1972 31H31.125V29ZM17.6796 26.243L17.7083 22C17.7083 20.6739 18.2132 19.4021 19.1118 18.4645C20.0104 17.5268 21.2292 17 22.5 17C23.7708 17 24.9896 17.5268 25.8882 18.4645C26.7868 19.4021 27.2917 20.6739 27.2917 22V26L27.9893 29H17.0193L17.6796 26.243ZM22.5 32C22.1651 31.9989 21.8363 31.906 21.5466 31.7305C21.257 31.555 21.0166 31.303 20.8497 31H24.1502C23.9834 31.303 23.743 31.555 23.4534 31.7305C23.1637 31.906 22.8349 31.9989 22.5 32Z" fill="#9A9AB0"/>
</svg>
