<svg width="80" height="80" viewBox="0 0 80 80" fill="none" xmlns="http://www.w3.org/2000/svg">
<path fill-rule="evenodd" clip-rule="evenodd" d="M37.5002 38.9998C36.9479 38.9998 36.5002 38.5521 36.5002 37.9998C36.5002 37.4475 36.9479 36.9998 37.5002 36.9998C38.0525 36.9998 38.5002 37.4475 38.5002 37.9998C38.5002 38.5521 38.0525 38.9998 37.5002 38.9998ZM39.5002 45.2098V47.9898C37.2302 47.8598 35.2102 46.7798 33.8402 45.1298C34.5202 44.5898 36.1202 44.0198 37.5002 44.0198C37.5802 44.0198 37.6502 44.0298 37.7302 44.0298C37.9702 43.3898 38.4002 42.7398 39.0302 42.1698C38.4702 42.0598 37.9402 42.0098 37.5002 42.0098C36.2002 42.0098 34.1102 42.4598 32.7702 43.4398C32.2802 42.3998 31.9902 41.2398 31.9902 40.0098C31.9902 35.5998 35.5802 32.0098 39.9902 32.0098C44.4002 32.0098 47.9902 35.5998 47.9902 40.0098C47.9902 41.2198 47.7202 42.3598 47.2402 43.3798C46.2402 42.7798 44.8802 42.5098 44.0002 42.5098C42.4802 42.5098 39.5002 43.3298 39.5002 45.2098ZM44.0002 36.9998C42.8902 36.9998 41.9902 37.8898 42.0002 38.9998C42.0002 40.1098 42.8902 40.9998 44.0002 40.9998C45.1102 40.9998 46.0002 40.1098 46.0002 38.9998C46.0002 37.8898 45.1102 36.9998 44.0002 36.9998ZM37.5002 40.9998C39.1502 40.9998 40.5002 39.6498 40.5002 37.9998C40.5002 36.3498 39.1502 34.9998 37.5002 34.9998C35.8502 34.9998 34.5002 36.3498 34.5002 37.9998C34.5002 39.6498 35.8502 40.9998 37.5002 40.9998Z" fill="white"/>
<path fill-rule="evenodd" clip-rule="evenodd" d="M40.5002 37.9998C40.5002 36.3498 39.1502 34.9998 37.5002 34.9998C35.8502 34.9998 34.5002 36.3498 34.5002 37.9998C34.5002 39.6498 35.8502 40.9998 37.5002 40.9998C39.1502 40.9998 40.5002 39.6498 40.5002 37.9998ZM37.5002 38.9998C36.9502 38.9998 36.5002 38.5498 36.5002 37.9998C36.5002 37.4498 36.9502 36.9998 37.5002 36.9998C38.0502 36.9998 38.5002 37.4498 38.5002 37.9998C38.5002 38.5498 38.0502 38.9998 37.5002 38.9998ZM44.0002 40.9998C45.1102 40.9998 46.0002 40.1098 46.0002 38.9998C46.0002 37.8898 45.1102 36.9998 44.0002 36.9998C42.8902 36.9998 41.9902 37.8898 42.0002 38.9998C42.0002 40.1098 42.8902 40.9998 44.0002 40.9998ZM39.9902 30.0098C34.4702 30.0098 29.9902 34.4898 29.9902 40.0098C29.9902 45.5298 34.4702 50.0098 39.9902 50.0098C45.5102 50.0098 49.9902 45.5298 49.9902 40.0098C49.9902 34.4898 45.5102 30.0098 39.9902 30.0098ZM33.8402 45.1198C34.5202 44.5798 36.1102 44.0098 37.5002 44.0098C37.5702 44.0098 37.6502 44.0198 37.7302 44.0198C37.9702 43.3798 38.4002 42.7298 39.0302 42.1598C38.4702 42.0598 37.9402 41.9998 37.5002 41.9998C36.2002 41.9998 34.1102 42.4498 32.7702 43.4298C32.2702 42.3898 31.9902 41.2298 31.9902 39.9998C31.9902 35.5898 35.5802 31.9998 39.9902 31.9998C44.4002 31.9998 47.9902 35.5898 47.9902 39.9998C47.9902 41.1998 47.7202 42.3398 47.2402 43.3698C46.2402 42.7798 44.8802 42.4998 44.0002 42.4998C42.4802 42.4998 39.5002 43.3098 39.5002 45.1998V47.9798C37.2302 47.8498 35.2102 46.7698 33.8402 45.1198Z" fill="#9A9AB0"/>
</svg>
