<svg width="30" height="30" viewBox="0 0 30 30" fill="none" xmlns="http://www.w3.org/2000/svg">
<path fill-rule="evenodd" clip-rule="evenodd" d="M15.5992 12.2218C16.9192 12.2218 17.9992 11.2218 17.9992 9.99957C17.9992 8.77734 16.9192 7.77734 15.5992 7.77734C14.2792 7.77734 13.1992 8.77734 13.1992 9.99957C13.1992 11.2218 14.2792 12.2218 15.5992 12.2218ZM15.5992 14.444C14.2792 14.444 13.1992 15.444 13.1992 16.6662C13.1992 17.8885 14.2792 18.8885 15.5992 18.8885C16.9192 18.8885 17.9992 17.8885 17.9992 16.6662C17.9992 15.444 16.9192 14.444 15.5992 14.444ZM15.5992 21.1107C14.2792 21.1107 13.1992 22.1107 13.1992 23.3329C13.1992 24.5551 14.2792 25.5551 15.5992 25.5551C16.9192 25.5551 17.9992 24.5551 17.9992 23.3329C17.9992 22.1107 16.9192 21.1107 15.5992 21.1107Z" fill="#9A9AB0"/>
</svg>
