<svg width="30" height="30" viewBox="0 0 30 30" fill="none" xmlns="http://www.w3.org/2000/svg">
<path d="M15.0068 6.31579C18.7722 6.31579 21.8281 9.85263 21.8281 14.2105C21.8281 15.2368 21.6507 16.2 21.337 17.1L25.3206 21.7105C27.3806 19.7211 29.0041 17.1474 30 14.2105C27.6398 7.27895 21.8145 2.36842 14.9932 2.36842C13.0832 2.36842 11.2551 2.76316 9.56344 3.47368L12.5102 6.88421C13.2879 6.52105 14.1201 6.31579 15.0068 6.31579ZM1.36426 2.00526L4.47476 5.60526L5.10232 6.33158C2.83765 8.36842 1.06412 11.0842 0 14.2105C2.36016 21.1421 8.18554 26.0526 15.0068 26.0526C17.1214 26.0526 19.1405 25.5789 20.9823 24.7263L21.5553 25.3895L25.5525 30L27.2851 27.9947L3.09686 0L1.36426 2.00526ZM8.9086 10.7368L11.0232 13.1842C10.955 13.5158 10.9141 13.8632 10.9141 14.2105C10.9141 16.8316 12.7422 18.9474 15.0068 18.9474C15.307 18.9474 15.6071 18.9 15.8936 18.8211L18.0082 21.2684C17.0941 21.7895 16.0846 22.1053 15.0068 22.1053C11.2415 22.1053 8.18554 18.5684 8.18554 14.2105C8.18554 12.9632 8.45839 11.7947 8.9086 10.7368ZM14.7885 9.50526L19.0859 14.4789L19.1132 14.2263C19.1132 11.6053 17.2851 9.48947 15.0205 9.48947L14.7885 9.50526Z" fill="black" fill-opacity="0.6"/>
</svg>
